<?xml version="1.0" encoding="utf-8"?>
<!-- Generator: Adobe Illustrator 15.0.0, SVG Export Plug-In . SVG Version: 6.00 Build 0)  -->
<!DOCTYPE svg PUBLIC "-//W3C//DTD SVG 1.1//EN" "http://www.w3.org/Graphics/SVG/1.1/DTD/svg11.dtd">
<svg version="1.1" id="Layer_1" xmlns="http://www.w3.org/2000/svg" xmlns:xlink="http://www.w3.org/1999/xlink" x="0px" y="0px"
	 width="500px" height="500px" viewBox="0 0 500 500" enable-background="new 0 0 500 500" xml:space="preserve">
<circle cx="250" cy="250" r="250"/>
<path fill="#FFFFFF" d="M183.56,148.916h-25.821V360.28h43.232V246.986c0-3.104-0.103-6.414-0.296-9.941
	c-0.193-3.529-0.438-7.136-0.721-10.806l99.654,125.914c2.421,3.091,4.933,5.229,7.547,6.388c2.615,1.159,5.808,1.739,9.568,1.739
	h25.538V148.916h-43.232v111.851c0,3.387,0.103,6.979,0.296,10.805s0.477,7.767,0.863,11.823L199.812,156.462
	c-1.364-1.648-2.563-2.949-3.632-3.915c-1.068-0.966-2.176-1.713-3.335-2.254c-1.159-0.528-2.46-0.888-3.916-1.082
	C187.475,149.019,185.685,148.916,183.56,148.916z"/>
</svg>
